# xmcd CD database file generated by OrangeCD 5.2
#
# Track frame offsets:
#	150
#	14710
#	42928
#	57914
#	92941
#	107718
#	142295
#	153172
#	193405
#	212052
#	233204
#	266431
#	285859
#
# Disc length: 4223 seconds
#
# Revision: 0
# Processed by: cddbd v1.5.1PL0 Copyright (c) Steve Scherf et al.
# Submitted via: OrangeCD 5.2
#
DISCID=c0107d0d
DTITLE=Van Morrison - Masonic Mysteries [CDOne)
DYEAR=1900
DGENRE=Blues
TTITLE0=Ordinary Life
TTITLE1=I'm Not Feeling It Anymore
TTITLE2=Why Must I Always Explain
TTITLE3=See Me Through - Soldier of Fortune
TTITLE4=Tore Down A La Rimbaud
TTITLE5=Haunts of Ancient Peace
TTITLE6=All Saints Day
TTITLE7=Sweet Thing
TTITLE8=Youth of a Thousand Summers
TTITLE9=So Quiet In Here - That's Where It's At
TTITLE10=A Town Called Paradise
TTITLE11=Did Ye Get Healed?
TTITLE12=It's All In The Game - Make It Real One More Time
EXTD=
EXTT0=
EXTT1=
EXTT2=
EXTT3=
EXTT4=
EXTT5=
EXTT6=
EXTT7=
EXTT8=
EXTT9=
EXTT10=
EXTT11=
EXTT12=
PLAYORDER=
